<mxfile host="app.diagrams.net" modified="2022-10-17T12:10:04.944Z" agent="5.0 (Windows NT 10.0; Win64; x64) AppleWebKit/537.36 (KHTML, like Gecko) Chrome/106.0.0.0 Safari/537.36" etag="Df2WpMLP1bbONOvySrwn" version="20.4.1" type="github">
  <diagram id="6s_L8jyC1DJRvDrBbDty" name="Pagina-1">
    <mxGraphModel dx="1422" dy="882" grid="1" gridSize="10" guides="0" tooltips="1" connect="0" arrows="1" fold="1" page="1" pageScale="1" pageWidth="827" pageHeight="1169" math="0" shadow="0">
      <root>
        <mxCell id="0" />
        <mxCell id="1" parent="0" />
        <mxCell id="Z8WPqF3UgCEcKX_RFtZw-13" style="edgeStyle=orthogonalEdgeStyle;sketch=1;hachureGap=4;jiggle=2;orthogonalLoop=1;jettySize=auto;html=1;fontFamily=Architects Daughter;fontSource=https%3A%2F%2Ffonts.googleapis.com%2Fcss%3Ffamily%3DArchitects%2BDaughter;fontSize=16;entryX=0.496;entryY=1.004;entryDx=0;entryDy=0;entryPerimeter=0;curved=1;endArrow=none;endFill=0;startArrow=block;startFill=1;" edge="1" parent="1" source="Z8WPqF3UgCEcKX_RFtZw-1" target="Z8WPqF3UgCEcKX_RFtZw-2">
          <mxGeometry relative="1" as="geometry">
            <mxPoint x="660" y="650" as="targetPoint" />
            <Array as="points">
              <mxPoint x="160" y="710" />
              <mxPoint x="679" y="710" />
            </Array>
          </mxGeometry>
        </mxCell>
        <mxCell id="Z8WPqF3UgCEcKX_RFtZw-1" value="" style="whiteSpace=wrap;html=1;aspect=fixed;rounded=0;sketch=1;" vertex="1" parent="1">
          <mxGeometry x="40" y="320" width="240" height="240" as="geometry" />
        </mxCell>
        <mxCell id="Z8WPqF3UgCEcKX_RFtZw-2" value="" style="whiteSpace=wrap;html=1;aspect=fixed;rounded=0;sketch=1;" vertex="1" parent="1">
          <mxGeometry x="560" y="320" width="240" height="240" as="geometry" />
        </mxCell>
        <mxCell id="Z8WPqF3UgCEcKX_RFtZw-3" value="" style="rounded=0;whiteSpace=wrap;html=1;sketch=1;" vertex="1" parent="1">
          <mxGeometry x="40" y="320" width="120" height="60" as="geometry" />
        </mxCell>
        <mxCell id="Z8WPqF3UgCEcKX_RFtZw-4" value="" style="rounded=0;whiteSpace=wrap;html=1;sketch=1;" vertex="1" parent="1">
          <mxGeometry x="160" y="320" width="120" height="60" as="geometry" />
        </mxCell>
        <mxCell id="Z8WPqF3UgCEcKX_RFtZw-5" value="" style="rounded=0;whiteSpace=wrap;html=1;sketch=1;" vertex="1" parent="1">
          <mxGeometry x="40" y="380" width="240" height="60" as="geometry" />
        </mxCell>
        <mxCell id="Z8WPqF3UgCEcKX_RFtZw-12" style="edgeStyle=orthogonalEdgeStyle;sketch=1;hachureGap=4;jiggle=2;orthogonalLoop=1;jettySize=auto;html=1;fontFamily=Architects Daughter;fontSource=https%3A%2F%2Ffonts.googleapis.com%2Fcss%3Ffamily%3DArchitects%2BDaughter;fontSize=16;curved=1;endArrow=none;endFill=0;startArrow=block;startFill=1;" edge="1" parent="1" source="Z8WPqF3UgCEcKX_RFtZw-6" target="Z8WPqF3UgCEcKX_RFtZw-3">
          <mxGeometry relative="1" as="geometry">
            <mxPoint x="200" y="350" as="targetPoint" />
            <Array as="points">
              <mxPoint x="680" y="210" />
              <mxPoint x="160" y="210" />
            </Array>
          </mxGeometry>
        </mxCell>
        <mxCell id="Z8WPqF3UgCEcKX_RFtZw-6" value="" style="rounded=0;whiteSpace=wrap;html=1;sketch=1;" vertex="1" parent="1">
          <mxGeometry x="560" y="320" width="240" height="60" as="geometry" />
        </mxCell>
        <mxCell id="Z8WPqF3UgCEcKX_RFtZw-7" value="" style="rounded=0;whiteSpace=wrap;html=1;sketch=1;" vertex="1" parent="1">
          <mxGeometry x="560" y="380" width="240" height="60" as="geometry" />
        </mxCell>
        <mxCell id="Z8WPqF3UgCEcKX_RFtZw-14" value="&lt;h3 style=&quot;font-size: 35px;&quot;&gt;Request&lt;/h3&gt;" style="text;html=1;resizable=0;autosize=1;align=center;verticalAlign=middle;points=[];fillColor=none;strokeColor=none;rounded=0;sketch=1;hachureGap=4;jiggle=2;fontFamily=Architects Daughter;fontSource=https%3A%2F%2Ffonts.googleapis.com%2Fcss%3Ffamily%3DArchitects%2BDaughter;fontSize=35;spacingLeft=0;spacing=22;spacingTop=0;" vertex="1" parent="1">
          <mxGeometry x="330" y="115" width="190" height="160" as="geometry" />
        </mxCell>
        <mxCell id="Z8WPqF3UgCEcKX_RFtZw-15" value="Response" style="text;html=1;resizable=0;autosize=1;align=center;verticalAlign=middle;points=[];fillColor=none;strokeColor=none;rounded=0;sketch=1;hachureGap=4;jiggle=2;fontFamily=Architects Daughter;fontSource=https%3A%2F%2Ffonts.googleapis.com%2Fcss%3Ffamily%3DArchitects%2BDaughter;fontSize=35;fontStyle=1" vertex="1" parent="1">
          <mxGeometry x="330" y="700" width="180" height="60" as="geometry" />
        </mxCell>
        <mxCell id="Z8WPqF3UgCEcKX_RFtZw-16" value="F1" style="whiteSpace=wrap;html=1;aspect=fixed;sketch=1;hachureGap=4;jiggle=2;fontFamily=Architects Daughter;fontSource=https%3A%2F%2Ffonts.googleapis.com%2Fcss%3Ffamily%3DArchitects%2BDaughter;fontSize=20;" vertex="1" parent="1">
          <mxGeometry x="40" y="320" width="30" height="30" as="geometry" />
        </mxCell>
        <mxCell id="Z8WPqF3UgCEcKX_RFtZw-17" value="F2" style="whiteSpace=wrap;html=1;aspect=fixed;sketch=1;hachureGap=4;jiggle=2;fontFamily=Architects Daughter;fontSource=https%3A%2F%2Ffonts.googleapis.com%2Fcss%3Ffamily%3DArchitects%2BDaughter;fontSize=20;" vertex="1" parent="1">
          <mxGeometry x="160" y="320" width="30" height="30" as="geometry" />
        </mxCell>
        <mxCell id="Z8WPqF3UgCEcKX_RFtZw-18" value="F3" style="whiteSpace=wrap;html=1;aspect=fixed;sketch=1;hachureGap=4;jiggle=2;fontFamily=Architects Daughter;fontSource=https%3A%2F%2Ffonts.googleapis.com%2Fcss%3Ffamily%3DArchitects%2BDaughter;fontSize=20;" vertex="1" parent="1">
          <mxGeometry x="40" y="380" width="30" height="30" as="geometry" />
        </mxCell>
        <mxCell id="Z8WPqF3UgCEcKX_RFtZw-19" value="F4" style="whiteSpace=wrap;html=1;aspect=fixed;sketch=1;hachureGap=4;jiggle=2;fontFamily=Architects Daughter;fontSource=https%3A%2F%2Ffonts.googleapis.com%2Fcss%3Ffamily%3DArchitects%2BDaughter;fontSize=20;" vertex="1" parent="1">
          <mxGeometry x="40" y="440" width="30" height="30" as="geometry" />
        </mxCell>
        <mxCell id="Z8WPqF3UgCEcKX_RFtZw-20" value="B1" style="whiteSpace=wrap;html=1;aspect=fixed;sketch=1;hachureGap=4;jiggle=2;fontFamily=Architects Daughter;fontSource=https%3A%2F%2Ffonts.googleapis.com%2Fcss%3Ffamily%3DArchitects%2BDaughter;fontSize=20;" vertex="1" parent="1">
          <mxGeometry x="560" y="320" width="30" height="30" as="geometry" />
        </mxCell>
        <mxCell id="Z8WPqF3UgCEcKX_RFtZw-21" value="B2" style="whiteSpace=wrap;html=1;aspect=fixed;sketch=1;hachureGap=4;jiggle=2;fontFamily=Architects Daughter;fontSource=https%3A%2F%2Ffonts.googleapis.com%2Fcss%3Ffamily%3DArchitects%2BDaughter;fontSize=20;" vertex="1" parent="1">
          <mxGeometry x="560" y="380" width="30" height="30" as="geometry" />
        </mxCell>
        <mxCell id="Z8WPqF3UgCEcKX_RFtZw-22" value="B3" style="whiteSpace=wrap;html=1;aspect=fixed;sketch=1;hachureGap=4;jiggle=2;fontFamily=Architects Daughter;fontSource=https%3A%2F%2Ffonts.googleapis.com%2Fcss%3Ffamily%3DArchitects%2BDaughter;fontSize=20;" vertex="1" parent="1">
          <mxGeometry x="560" y="440" width="30" height="30" as="geometry" />
        </mxCell>
        <mxCell id="Z8WPqF3UgCEcKX_RFtZw-24" value="A" style="rounded=0;whiteSpace=wrap;html=1;sketch=1;hachureGap=4;jiggle=2;fontFamily=Architects Daughter;fontSource=https%3A%2F%2Ffonts.googleapis.com%2Fcss%3Ffamily%3DArchitects%2BDaughter;fontSize=20;" vertex="1" parent="1">
          <mxGeometry x="100" y="470" width="120" height="60" as="geometry" />
        </mxCell>
        <mxCell id="Z8WPqF3UgCEcKX_RFtZw-25" value="D" style="rounded=0;whiteSpace=wrap;html=1;sketch=1;hachureGap=4;jiggle=2;fontFamily=Architects Daughter;fontSource=https%3A%2F%2Ffonts.googleapis.com%2Fcss%3Ffamily%3DArchitects%2BDaughter;fontSize=20;" vertex="1" parent="1">
          <mxGeometry x="70" y="330" width="80" height="40" as="geometry" />
        </mxCell>
        <mxCell id="Z8WPqF3UgCEcKX_RFtZw-26" value="G" style="rounded=0;whiteSpace=wrap;html=1;sketch=1;hachureGap=4;jiggle=2;fontFamily=Architects Daughter;fontSource=https%3A%2F%2Ffonts.googleapis.com%2Fcss%3Ffamily%3DArchitects%2BDaughter;fontSize=20;" vertex="1" parent="1">
          <mxGeometry x="190" y="330" width="80" height="40" as="geometry" />
        </mxCell>
        <mxCell id="Z8WPqF3UgCEcKX_RFtZw-27" value="E" style="rounded=0;whiteSpace=wrap;html=1;sketch=1;hachureGap=4;jiggle=2;fontFamily=Architects Daughter;fontSource=https%3A%2F%2Ffonts.googleapis.com%2Fcss%3Ffamily%3DArchitects%2BDaughter;fontSize=20;" vertex="1" parent="1">
          <mxGeometry x="630" y="470" width="120" height="60" as="geometry" />
        </mxCell>
        <mxCell id="Z8WPqF3UgCEcKX_RFtZw-28" value="C" style="rounded=0;whiteSpace=wrap;html=1;sketch=1;hachureGap=4;jiggle=2;fontFamily=Architects Daughter;fontSource=https%3A%2F%2Ffonts.googleapis.com%2Fcss%3Ffamily%3DArchitects%2BDaughter;fontSize=20;" vertex="1" parent="1">
          <mxGeometry x="650" y="330" width="80" height="40" as="geometry" />
        </mxCell>
        <mxCell id="Z8WPqF3UgCEcKX_RFtZw-29" value="F" style="rounded=0;whiteSpace=wrap;html=1;sketch=1;hachureGap=4;jiggle=2;fontFamily=Architects Daughter;fontSource=https%3A%2F%2Ffonts.googleapis.com%2Fcss%3Ffamily%3DArchitects%2BDaughter;fontSize=20;" vertex="1" parent="1">
          <mxGeometry x="100" y="390" width="120" height="40" as="geometry" />
        </mxCell>
        <mxCell id="Z8WPqF3UgCEcKX_RFtZw-30" value="B" style="rounded=0;whiteSpace=wrap;html=1;sketch=1;hachureGap=4;jiggle=2;fontFamily=Architects Daughter;fontSource=https%3A%2F%2Ffonts.googleapis.com%2Fcss%3Ffamily%3DArchitects%2BDaughter;fontSize=20;" vertex="1" parent="1">
          <mxGeometry x="630" y="390" width="120" height="40" as="geometry" />
        </mxCell>
      </root>
    </mxGraphModel>
  </diagram>
</mxfile>
